<mxfile host="app.diagrams.net" agent="Mozilla/5.0 (Windows NT 10.0; Win64; x64) AppleWebKit/537.36 (KHTML, like Gecko) Chrome/134.0.0.0 Safari/537.36" version="26.1.1">
  <diagram id="C5RBs43oDa-KdzZeNtuy" name="Page-1">
    <mxGraphModel dx="1120" dy="468" grid="1" gridSize="10" guides="1" tooltips="1" connect="1" arrows="1" fold="1" page="1" pageScale="1" pageWidth="827" pageHeight="1169" math="0" shadow="0">
      <root>
        <mxCell id="WIyWlLk6GJQsqaUBKTNV-0" />
        <mxCell id="WIyWlLk6GJQsqaUBKTNV-1" parent="WIyWlLk6GJQsqaUBKTNV-0" />
        <mxCell id="YDQ6DXKYKK8zYt77NKVc-2" style="edgeStyle=orthogonalEdgeStyle;rounded=0;orthogonalLoop=1;jettySize=auto;html=1;exitX=0.5;exitY=0.5;exitDx=0;exitDy=0;exitPerimeter=0;entryX=0;entryY=0.5;entryDx=0;entryDy=0;" edge="1" parent="WIyWlLk6GJQsqaUBKTNV-1" source="YDQ6DXKYKK8zYt77NKVc-0" target="YDQ6DXKYKK8zYt77NKVc-1">
          <mxGeometry relative="1" as="geometry">
            <mxPoint x="190" y="150" as="targetPoint" />
          </mxGeometry>
        </mxCell>
        <mxCell id="YDQ6DXKYKK8zYt77NKVc-0" value="Cliente" style="shape=umlActor;verticalLabelPosition=bottom;verticalAlign=top;html=1;outlineConnect=0;" vertex="1" parent="WIyWlLk6GJQsqaUBKTNV-1">
          <mxGeometry x="90" y="110" width="30" height="60" as="geometry" />
        </mxCell>
        <mxCell id="YDQ6DXKYKK8zYt77NKVc-9" style="edgeStyle=orthogonalEdgeStyle;rounded=0;orthogonalLoop=1;jettySize=auto;html=1;entryX=0.5;entryY=0;entryDx=0;entryDy=0;" edge="1" parent="WIyWlLk6GJQsqaUBKTNV-1" source="YDQ6DXKYKK8zYt77NKVc-1" target="YDQ6DXKYKK8zYt77NKVc-5">
          <mxGeometry relative="1" as="geometry" />
        </mxCell>
        <mxCell id="YDQ6DXKYKK8zYt77NKVc-3" style="edgeStyle=orthogonalEdgeStyle;rounded=0;orthogonalLoop=1;jettySize=auto;html=1;exitX=0.5;exitY=0.5;exitDx=0;exitDy=0;exitPerimeter=0;entryX=0;entryY=0.5;entryDx=0;entryDy=0;" edge="1" source="YDQ6DXKYKK8zYt77NKVc-4" parent="WIyWlLk6GJQsqaUBKTNV-1" target="YDQ6DXKYKK8zYt77NKVc-5">
          <mxGeometry relative="1" as="geometry">
            <mxPoint x="180" y="290" as="targetPoint" />
          </mxGeometry>
        </mxCell>
        <mxCell id="YDQ6DXKYKK8zYt77NKVc-4" value="Sistema" style="shape=umlActor;verticalLabelPosition=bottom;verticalAlign=top;html=1;outlineConnect=0;" vertex="1" parent="WIyWlLk6GJQsqaUBKTNV-1">
          <mxGeometry x="90" y="250" width="30" height="60" as="geometry" />
        </mxCell>
        <mxCell id="YDQ6DXKYKK8zYt77NKVc-11" value="" style="edgeStyle=orthogonalEdgeStyle;rounded=0;orthogonalLoop=1;jettySize=auto;html=1;" edge="1" parent="WIyWlLk6GJQsqaUBKTNV-1" source="YDQ6DXKYKK8zYt77NKVc-5" target="YDQ6DXKYKK8zYt77NKVc-10">
          <mxGeometry relative="1" as="geometry" />
        </mxCell>
        <mxCell id="YDQ6DXKYKK8zYt77NKVc-5" value="Sistema verifica os pedidos pendentes" style="ellipse;whiteSpace=wrap;html=1;" vertex="1" parent="WIyWlLk6GJQsqaUBKTNV-1">
          <mxGeometry x="180" y="240" width="130" height="80" as="geometry" />
        </mxCell>
        <mxCell id="YDQ6DXKYKK8zYt77NKVc-6" value="" style="swimlane;startSize=0;" vertex="1" parent="WIyWlLk6GJQsqaUBKTNV-1">
          <mxGeometry x="130" y="90" width="450" height="250" as="geometry" />
        </mxCell>
        <mxCell id="YDQ6DXKYKK8zYt77NKVc-10" value="Sistema remove e processa um pedido da fila&amp;nbsp;" style="ellipse;whiteSpace=wrap;html=1;" vertex="1" parent="YDQ6DXKYKK8zYt77NKVc-6">
          <mxGeometry x="250" y="150" width="130" height="80" as="geometry" />
        </mxCell>
        <mxCell id="YDQ6DXKYKK8zYt77NKVc-1" value="Cliente inicia um pedido de reembolso" style="ellipse;whiteSpace=wrap;html=1;" vertex="1" parent="YDQ6DXKYKK8zYt77NKVc-6">
          <mxGeometry x="40" y="20" width="150" height="80" as="geometry" />
        </mxCell>
      </root>
    </mxGraphModel>
  </diagram>
</mxfile>
